<svg width="24" height="24" viewBox="0 0 24 24" fill="none" xmlns="http://www.w3.org/2000/svg">
<path d="M17 8V8C17 5.23858 14.7614 3 12 3V3C9.23858 3 7 5.23858 7 8V8M9.8691 21H14.1309C15.6962 21 16.4788 21 17.1422 20.7898C18.2527 20.4379 19.1836 19.669 19.7389 18.6449C20.0705 18.0332 20.2183 17.2646 20.5139 15.7275V15.7275C20.931 13.5585 21.1396 12.4741 20.9613 11.6003C20.6619 10.1332 19.6525 8.91114 18.2684 8.34011C17.444 8 16.3396 8 14.1309 8H9.8691C7.66039 8 6.55604 8 5.73164 8.34011C4.34752 8.91114 3.33807 10.1332 3.0387 11.6003C2.8604 12.4741 3.06895 13.5585 3.48606 15.7275V15.7275C3.78166 17.2646 3.92945 18.0332 4.26114 18.6449C4.81643 19.669 5.74725 20.4379 6.85783 20.7898C7.5212 21 8.30383 21 9.8691 21Z" stroke="#424242" stroke-width="1.5" stroke-linecap="round" stroke-linejoin="round"/>
</svg>
