<svg width="30" height="30" viewBox="0 0 30 30" fill="none" xmlns="http://www.w3.org/2000/svg">
<path fill-rule="evenodd" clip-rule="evenodd" d="M24.3141 15.9585L19.9131 21.7073C17.9219 24.3083 16.9263 25.6088 15.6272 25.8498C15.2126 25.9268 14.7874 25.9268 14.3728 25.8498C13.0737 25.6088 12.0781 24.3083 10.0869 21.7073L5.68594 15.9585C4.3397 14.2 3.66658 13.3207 3.57623 12.3322C3.54686 12.0109 3.56287 11.6871 3.62379 11.3703C3.81121 10.3955 4.56777 9.58695 6.08089 7.9698L7.61052 6.33501C8.41257 5.47782 8.81359 5.04922 9.31434 4.78138C9.47985 4.69284 9.65234 4.61802 9.83007 4.55765C10.3678 4.375 10.9547 4.375 12.1286 4.375H17.8714C19.0453 4.375 19.6322 4.375 20.1699 4.55765C20.3477 4.61802 20.5201 4.69284 20.6857 4.78138C21.1864 5.04922 21.5874 5.47782 22.3895 6.335L22.3895 6.33501L23.9191 7.9698C25.4322 9.58695 26.1888 10.3955 26.3762 11.3703C26.4371 11.6871 26.4531 12.0109 26.4238 12.3322C26.3334 13.3207 25.6603 14.2 24.3141 15.9585ZM13.3076 8.125L13.1742 8.12493C12.4067 8.12428 11.801 8.12377 11.2367 8.32534C11.0515 8.39151 10.8723 8.47345 10.7011 8.57026C10.1795 8.8652 9.78373 9.32362 9.28214 9.90457L9.19491 10.0055L8.04091 11.3399C7.75202 11.6739 7.73542 12.1642 8.00106 12.517L10.5011 15.8373C10.8125 16.251 11.4003 16.3338 11.8139 16.0224C12.2275 15.7109 12.3104 15.1232 11.9989 14.7095L9.95423 11.9939L10.6131 11.2321C11.2446 10.5019 11.4214 10.317 11.624 10.2024C11.7019 10.1584 11.7833 10.1211 11.8675 10.0911C12.0867 10.0128 12.3423 10 13.3076 10H15C15.5178 10 15.9375 9.58027 15.9375 9.0625C15.9375 8.54473 15.5178 8.125 15 8.125H13.3076Z" fill="#8204FF"/>
</svg>
