<svg width="24" height="24" viewBox="0 0 24 24" fill="none" xmlns="http://www.w3.org/2000/svg">
<path d="M20 17.5V18.25C20.4142 18.25 20.75 17.9142 20.75 17.5H20ZM4 17.5H3.25C3.25 17.9142 3.58579 18.25 4 18.25V17.5ZM9.88904 10.3336C10.2432 10.1188 10.3562 9.65753 10.1414 9.30337C9.92658 8.9492 9.46534 8.83622 9.11118 9.05103L9.88904 10.3336ZM5.95807 13.3197C5.85756 13.7215 6.10184 14.1287 6.50367 14.2292C6.90551 14.3298 7.31274 14.0855 7.41324 13.6836L5.95807 13.3197ZM4.5 18.25H19.5V16.75H4.5V18.25ZM19.25 14.5V17.5H20.75V14.5H19.25ZM20 16.75H4V18.25H20V16.75ZM4.75 17.5V14.5H3.25V17.5H4.75ZM12.75 5C12.75 5.41421 12.4142 5.75 12 5.75V7.25C13.2426 7.25 14.25 6.24264 14.25 5H12.75ZM12 5.75C11.5858 5.75 11.25 5.41421 11.25 5H9.75C9.75 6.24264 10.7574 7.25 12 7.25V5.75ZM11.25 5C11.25 4.58579 11.5858 4.25 12 4.25V2.75C10.7574 2.75 9.75 3.75736 9.75 5H11.25ZM12 4.25C12.4142 4.25 12.75 4.58579 12.75 5H14.25C14.25 3.75736 13.2426 2.75 12 2.75V4.25ZM9.11118 9.05103C7.5637 9.98957 6.40969 11.514 5.95807 13.3197L7.41324 13.6836C7.76689 12.2697 8.67222 11.0716 9.88904 10.3336L9.11118 9.05103ZM12 7.25C16.0041 7.25 19.25 10.4959 19.25 14.5H20.75C20.75 9.66751 16.8325 5.75 12 5.75V7.25ZM12 5.75C7.16751 5.75 3.25 9.66751 3.25 14.5H4.75C4.75 10.4959 7.99594 7.25 12 7.25V5.75ZM4.5 18.25H19.5V16.75H4.5V18.25ZM19.5 19.75H4.5V21.25H19.5V19.75ZM4.5 19.75C4.08579 19.75 3.75 19.4142 3.75 19H2.25C2.25 20.2426 3.25736 21.25 4.5 21.25V19.75ZM20.25 19C20.25 19.4142 19.9142 19.75 19.5 19.75V21.25C20.7426 21.25 21.75 20.2426 21.75 19H20.25ZM19.5 18.25C19.9142 18.25 20.25 18.5858 20.25 19H21.75C21.75 17.7574 20.7426 16.75 19.5 16.75V18.25ZM4.5 16.75C3.25736 16.75 2.25 17.7574 2.25 19H3.75C3.75 18.5858 4.08579 18.25 4.5 18.25V16.75Z" fill="#8204FF"/>
</svg>
